<?xml version="1.0" standalone="no"?>
<!DOCTYPE svg PUBLIC "-//W3C//DTD SVG 20010904//EN"
 "http://www.w3.org/TR/2001/REC-SVG-20010904/DTD/svg10.dtd">
<svg version="1.0" xmlns="http://www.w3.org/2000/svg"
 width="159.000000pt" height="82.000000pt" viewBox="0 0 159.000000 82.000000"
 preserveAspectRatio="xMidYMid meet">

<g transform="translate(0.000000,82.000000) scale(0.100000,-0.100000)"
fill="#000000" stroke="none">
<path d="M371 761 c0 -28 5 -51 15 -62 14 -16 14 -18 -5 -24 -12 -3 -26 -3
-32 1 -7 4 -10 1 -7 -7 2 -8 14 -18 26 -24 20 -9 19 -10 -11 -20 -23 -7 -39
-23 -58 -59 -32 -59 -135 -160 -155 -152 -8 3 -20 19 -25 36 -10 27 -15 30
-55 30 -34 0 -46 -5 -54 -21 -7 -11 -9 -23 -6 -26 10 -10 56 8 56 22 0 28 30
15 47 -20 9 -19 25 -37 35 -41 14 -4 18 -16 18 -50 0 -25 7 -61 16 -82 18 -42
43 -130 53 -182 5 -29 11 -36 35 -38 l29 -4 -22 35 c-24 40 -38 144 -21 167 9
13 12 12 25 -5 23 -29 45 -112 45 -166 0 -38 4 -51 20 -59 12 -6 20 -7 20 -1
0 5 9 7 20 4 25 -7 25 -2 -1 49 -16 31 -20 54 -17 90 6 55 12 65 47 70 32 4
44 -35 35 -114 -8 -77 0 -98 37 -98 35 0 34 -1 9 48 -18 34 -19 47 -11 104 5
36 15 76 21 89 7 12 15 60 18 106 3 52 10 87 18 94 9 7 14 34 14 75 0 62 15
94 43 94 7 0 29 12 50 26 34 23 38 29 35 62 l-3 37 -59 0 c-55 0 -60 2 -66 25
-6 23 -7 23 -12 5 -3 -14 -23 -27 -61 -40 -54 -18 -57 -18 -76 -1 -11 10 -22
30 -24 45 -2 16 -5 9 -6 -18z"/>
<path d="M735 574 c-56 -29 -90 -73 -45 -59 18 6 19 0 22 -76 2 -64 7 -84 20
-93 24 -15 34 0 14 20 -13 13 -16 34 -15 99 1 77 3 84 26 94 37 17 91 14 101
-6 22 -41 -47 -110 -96 -98 -17 4 -23 2 -20 -7 13 -38 101 -9 132 43 9 16 24
29 32 29 8 0 14 5 14 11 0 6 -6 9 -12 6 -7 -2 -21 9 -30 25 -16 24 -24 28 -65
28 -27 0 -61 -7 -78 -16z"/>
<path d="M1345 560 c-3 -5 -11 -48 -17 -95 -12 -91 -31 -110 -36 -36 -4 51
-27 65 -54 32 -18 -23 -18 -23 -18 -2 0 39 -19 21 -26 -24 -4 -29 -11 -45 -20
-45 -11 0 -13 12 -8 55 6 51 5 55 -13 55 -23 0 -89 -68 -103 -105 -10 -26 -4
-55 11 -55 4 0 24 14 42 30 34 29 35 29 40 9 4 -14 11 -20 20 -16 8 3 19 1 25
-5 7 -7 18 5 36 41 30 57 46 65 46 22 0 -42 10 -61 31 -61 10 0 19 -4 19 -10
0 -25 20 -6 30 28 6 20 17 48 24 62 l14 25 7 -40 c8 -51 18 -70 38 -70 9 0 19
-3 23 -7 8 -8 35 5 59 28 15 15 17 15 29 -1 8 -11 20 -16 30 -12 20 8 21 27 2
27 -12 0 -13 11 -9 55 5 50 4 55 -14 55 -23 0 -74 -51 -97 -98 -20 -39 -36
-34 -36 12 0 18 -6 41 -14 51 -14 19 -15 19 -37 0 l-22 -20 6 40 c3 22 9 50
13 63 6 22 -9 32 -21 12z m-204 -111 c-11 -30 -71 -88 -71 -69 0 14 70 103 76
97 3 -2 0 -15 -5 -28z m405 4 c-10 -26 -64 -88 -72 -80 -7 7 17 49 49 84 23
26 32 24 23 -4z"/>
<path d="M967 471 c-67 -80 -25 -162 50 -97 37 32 23 44 -16 15 -39 -29 -57
-17 -41 27 17 44 40 65 63 58 14 -4 18 -2 15 7 -9 26 -45 21 -71 -10z"/>
<path d="M885 437 c-8 -49 6 -87 30 -87 19 0 19 8 -1 27 -10 11 -13 25 -8 47
10 48 10 48 -3 53 -7 3 -14 -12 -18 -40z"/>
<path d="M867 303 c-2 -4 -7 -19 -10 -33 -3 -14 -16 -29 -29 -35 -27 -12 -68
-70 -68 -96 0 -27 32 -24 61 7 l24 26 5 -24 c5 -17 13 -23 35 -24 17 0 35 1
42 3 18 7 45 71 38 93 -16 50 -85 1 -85 -59 0 -12 -4 -21 -10 -21 -13 0 -13
46 1 110 10 47 8 74 -4 53z m79 -105 c-7 -37 -29 -63 -45 -54 -7 5 -7 15 0 34
22 58 56 73 45 20z m-105 4 c-13 -25 -63 -73 -69 -67 -9 9 48 85 63 85 12 0
13 -4 6 -18z"/>
<path d="M1033 300 c-31 -13 -30 -34 1 -26 28 7 36 -12 36 -88 0 -66 -19 -123
-48 -147 -31 -24 -37 -24 -62 1 -23 23 -30 25 -30 7 0 -21 34 -47 62 -47 61 0
98 81 98 216 l0 76 26 -6 c19 -5 25 -3 22 6 -5 16 -74 21 -105 8z"/>
<path d="M1407 197 c-18 -19 -39 -48 -46 -65 -19 -45 -29 -40 -37 18 -4 28
-11 53 -16 56 -5 3 -21 -5 -35 -17 -15 -13 -23 -19 -19 -12 6 10 -11 30 -19
22 -2 -2 -6 -30 -10 -61 -9 -69 4 -76 30 -18 25 54 45 71 45 37 0 -47 17 -75
50 -82 26 -6 37 -2 60 20 23 22 28 24 33 11 4 -9 13 -16 22 -16 8 0 24 -5 35
-12 16 -10 24 -9 47 8 38 29 36 56 -4 66 -18 5 -33 12 -33 16 0 16 25 32 48
32 26 0 26 23 0 28 -19 4 -78 -45 -78 -64 0 -15 5 -18 53 -29 24 -5 27 -8 17
-20 -15 -18 -50 -20 -50 -4 0 6 -7 9 -15 6 -21 -9 -24 3 -16 48 14 74 -8 85
-62 32z m43 -12 c0 -17 -70 -98 -78 -91 -6 6 22 52 51 84 24 26 27 27 27 7z"/>
<path d="M1147 208 c-37 -29 -49 -111 -18 -127 42 -23 106 72 81 119 -12 23
-38 26 -63 8z m43 -30 c0 -30 -37 -91 -50 -83 -16 10 -12 37 10 73 23 37 40
42 40 10z"/>
</g>
</svg>
